# xmcd CD database file
#
# Track frame offsets:
#	150
#	2793
#	21853
#	46761
#	62975
#	80189
#	94990
#	115491
#	135838
#	147931
#	170625
#	190981
#
# Disc length: 3495 seconds
#
# Revision: 3
# Processed by: cddbd v1.5.1PL2 Copyright (c) Steve Scherf et al.
# Submitted via: CDex 1.51
#
DISCID=a70da50c
DTITLE=Redwood - Everything Under The Sun
DYEAR=2004
DGENRE=Rock
TTITLE0=In A Room Full Of...
TTITLE1=Lights
TTITLE2=My Portable Phone
TTITLE3=Soonish
TTITLE4=The Weight Of The World
TTITLE5=Today
TTITLE6=Better Dayz
TTITLE7=Heaven
TTITLE8=Pop Goes The Cherry
TTITLE9=Black
TTITLE10=When Will They Come
TTITLE11=Exit
EXTD=YEAR: 2004
EXTT0=
EXTT1=
EXTT2=
EXTT3=
EXTT4=
EXTT5=
EXTT6=
EXTT7=
EXTT8=
EXTT9=
EXTT10=
EXTT11=
PLAYORDER=
